<mxfile host="app.diagrams.net" agent="Mozilla/5.0 (Windows NT 10.0; Win64; x64) AppleWebKit/537.36 (KHTML, like Gecko) Chrome/133.0.0.0 Safari/537.36" version="26.1.0">
  <diagram name="Page-1" id="UiUzkCV8bTqbFJQ-Q_vU">
    <mxGraphModel dx="2927" dy="2293" grid="1" gridSize="10" guides="1" tooltips="1" connect="1" arrows="1" fold="1" page="1" pageScale="1" pageWidth="827" pageHeight="1169" math="0" shadow="0">
      <root>
        <mxCell id="0" />
        <mxCell id="1" parent="0" />
        <mxCell id="Orui0hAEhWIHDiH9NPAQ-70" value="" style="group" vertex="1" connectable="0" parent="1">
          <mxGeometry x="747" y="-380" width="80" height="160" as="geometry" />
        </mxCell>
        <mxCell id="Orui0hAEhWIHDiH9NPAQ-7" value="" style="rounded=0;whiteSpace=wrap;html=1;" vertex="1" parent="Orui0hAEhWIHDiH9NPAQ-70">
          <mxGeometry width="80" height="130" as="geometry" />
        </mxCell>
        <mxCell id="Orui0hAEhWIHDiH9NPAQ-8" value="Motor 1 (F)" style="text;html=1;align=center;verticalAlign=middle;whiteSpace=wrap;rounded=0;" vertex="1" parent="Orui0hAEhWIHDiH9NPAQ-70">
          <mxGeometry width="80" height="20" as="geometry" />
        </mxCell>
        <mxCell id="Orui0hAEhWIHDiH9NPAQ-11" value="    +" style="shape=waypoint;sketch=0;fillStyle=solid;size=6;pointerEvents=1;points=[];fillColor=none;resizable=0;rotatable=0;perimeter=centerPerimeter;snapToPoint=1;align=left;" vertex="1" parent="Orui0hAEhWIHDiH9NPAQ-70">
          <mxGeometry y="20" width="20" height="20" as="geometry" />
        </mxCell>
        <mxCell id="Orui0hAEhWIHDiH9NPAQ-12" value="    -" style="shape=waypoint;sketch=0;fillStyle=solid;size=6;pointerEvents=1;points=[];fillColor=default;resizable=0;rotatable=0;perimeter=centerPerimeter;snapToPoint=1;align=left;" vertex="1" parent="Orui0hAEhWIHDiH9NPAQ-70">
          <mxGeometry y="40" width="20" height="20" as="geometry" />
        </mxCell>
        <mxCell id="Orui0hAEhWIHDiH9NPAQ-15" value="" style="rounded=0;whiteSpace=wrap;html=1;" vertex="1" parent="Orui0hAEhWIHDiH9NPAQ-70">
          <mxGeometry y="60" width="80" height="99.99999999999999" as="geometry" />
        </mxCell>
        <mxCell id="Orui0hAEhWIHDiH9NPAQ-16" value="Encoder 1" style="text;html=1;align=center;verticalAlign=middle;whiteSpace=wrap;rounded=0;" vertex="1" parent="Orui0hAEhWIHDiH9NPAQ-70">
          <mxGeometry x="10" y="60" width="60" height="20" as="geometry" />
        </mxCell>
        <mxCell id="Orui0hAEhWIHDiH9NPAQ-20" value="    VCC (3,3V)" style="shape=waypoint;sketch=0;fillStyle=solid;size=6;pointerEvents=1;points=[];fillColor=none;resizable=0;rotatable=0;perimeter=centerPerimeter;snapToPoint=1;align=left;" vertex="1" parent="Orui0hAEhWIHDiH9NPAQ-70">
          <mxGeometry y="80" width="20" height="20" as="geometry" />
        </mxCell>
        <mxCell id="Orui0hAEhWIHDiH9NPAQ-21" value="    GND" style="shape=waypoint;sketch=0;fillStyle=solid;size=6;pointerEvents=1;points=[];fillColor=none;resizable=0;rotatable=0;perimeter=centerPerimeter;snapToPoint=1;align=left;" vertex="1" parent="Orui0hAEhWIHDiH9NPAQ-70">
          <mxGeometry y="100" width="20" height="20" as="geometry" />
        </mxCell>
        <mxCell id="Orui0hAEhWIHDiH9NPAQ-22" value="    Trigger A" style="shape=waypoint;sketch=0;fillStyle=solid;size=6;pointerEvents=1;points=[];fillColor=none;resizable=0;rotatable=0;perimeter=centerPerimeter;snapToPoint=1;align=left;" vertex="1" parent="Orui0hAEhWIHDiH9NPAQ-70">
          <mxGeometry y="120" width="20" height="20" as="geometry" />
        </mxCell>
        <mxCell id="Orui0hAEhWIHDiH9NPAQ-23" value="    Trigger B" style="shape=waypoint;sketch=0;fillStyle=solid;size=6;pointerEvents=1;points=[];fillColor=none;resizable=0;rotatable=0;perimeter=centerPerimeter;snapToPoint=1;align=left;" vertex="1" parent="Orui0hAEhWIHDiH9NPAQ-70">
          <mxGeometry y="140" width="20" height="20" as="geometry" />
        </mxCell>
        <mxCell id="Orui0hAEhWIHDiH9NPAQ-79" value="" style="group" vertex="1" connectable="0" parent="1">
          <mxGeometry x="320" y="-680" width="80" height="160" as="geometry" />
        </mxCell>
        <mxCell id="Orui0hAEhWIHDiH9NPAQ-80" value="" style="rounded=0;whiteSpace=wrap;html=1;" vertex="1" parent="Orui0hAEhWIHDiH9NPAQ-79">
          <mxGeometry width="80" height="130" as="geometry" />
        </mxCell>
        <mxCell id="Orui0hAEhWIHDiH9NPAQ-81" value="Motor 1 (F)" style="text;html=1;align=center;verticalAlign=middle;whiteSpace=wrap;rounded=0;" vertex="1" parent="Orui0hAEhWIHDiH9NPAQ-79">
          <mxGeometry width="80" height="20" as="geometry" />
        </mxCell>
        <mxCell id="Orui0hAEhWIHDiH9NPAQ-82" value="    +" style="shape=waypoint;sketch=0;fillStyle=solid;size=6;pointerEvents=1;points=[];fillColor=none;resizable=0;rotatable=0;perimeter=centerPerimeter;snapToPoint=1;align=left;" vertex="1" parent="Orui0hAEhWIHDiH9NPAQ-79">
          <mxGeometry y="20" width="20" height="20" as="geometry" />
        </mxCell>
        <mxCell id="Orui0hAEhWIHDiH9NPAQ-83" value="    -" style="shape=waypoint;sketch=0;fillStyle=solid;size=6;pointerEvents=1;points=[];fillColor=default;resizable=0;rotatable=0;perimeter=centerPerimeter;snapToPoint=1;align=left;" vertex="1" parent="Orui0hAEhWIHDiH9NPAQ-79">
          <mxGeometry y="40" width="20" height="20" as="geometry" />
        </mxCell>
        <mxCell id="Orui0hAEhWIHDiH9NPAQ-84" value="" style="rounded=0;whiteSpace=wrap;html=1;" vertex="1" parent="Orui0hAEhWIHDiH9NPAQ-79">
          <mxGeometry y="60" width="80" height="99.99999999999999" as="geometry" />
        </mxCell>
        <mxCell id="Orui0hAEhWIHDiH9NPAQ-85" value="Encoder 1" style="text;html=1;align=center;verticalAlign=middle;whiteSpace=wrap;rounded=0;" vertex="1" parent="Orui0hAEhWIHDiH9NPAQ-79">
          <mxGeometry x="10" y="60" width="60" height="20" as="geometry" />
        </mxCell>
        <mxCell id="Orui0hAEhWIHDiH9NPAQ-86" value="    VCC (3,3V)" style="shape=waypoint;sketch=0;fillStyle=solid;size=6;pointerEvents=1;points=[];fillColor=none;resizable=0;rotatable=0;perimeter=centerPerimeter;snapToPoint=1;align=left;" vertex="1" parent="Orui0hAEhWIHDiH9NPAQ-79">
          <mxGeometry y="80" width="20" height="20" as="geometry" />
        </mxCell>
        <mxCell id="Orui0hAEhWIHDiH9NPAQ-87" value="    GND" style="shape=waypoint;sketch=0;fillStyle=solid;size=6;pointerEvents=1;points=[];fillColor=none;resizable=0;rotatable=0;perimeter=centerPerimeter;snapToPoint=1;align=left;" vertex="1" parent="Orui0hAEhWIHDiH9NPAQ-79">
          <mxGeometry y="100" width="20" height="20" as="geometry" />
        </mxCell>
        <mxCell id="Orui0hAEhWIHDiH9NPAQ-88" value="    Trigger A" style="shape=waypoint;sketch=0;fillStyle=solid;size=6;pointerEvents=1;points=[];fillColor=none;resizable=0;rotatable=0;perimeter=centerPerimeter;snapToPoint=1;align=left;" vertex="1" parent="Orui0hAEhWIHDiH9NPAQ-79">
          <mxGeometry y="120" width="20" height="20" as="geometry" />
        </mxCell>
        <mxCell id="Orui0hAEhWIHDiH9NPAQ-89" value="    Trigger B" style="shape=waypoint;sketch=0;fillStyle=solid;size=6;pointerEvents=1;points=[];fillColor=none;resizable=0;rotatable=0;perimeter=centerPerimeter;snapToPoint=1;align=left;" vertex="1" parent="Orui0hAEhWIHDiH9NPAQ-79">
          <mxGeometry y="140" width="20" height="20" as="geometry" />
        </mxCell>
        <mxCell id="Orui0hAEhWIHDiH9NPAQ-92" value="" style="group" vertex="1" connectable="0" parent="1">
          <mxGeometry x="320" y="-500" width="80" height="160" as="geometry" />
        </mxCell>
        <mxCell id="Orui0hAEhWIHDiH9NPAQ-93" value="" style="rounded=0;whiteSpace=wrap;html=1;" vertex="1" parent="Orui0hAEhWIHDiH9NPAQ-92">
          <mxGeometry width="80" height="130" as="geometry" />
        </mxCell>
        <mxCell id="Orui0hAEhWIHDiH9NPAQ-94" value="Motor 2 (BL)" style="text;html=1;align=center;verticalAlign=middle;whiteSpace=wrap;rounded=0;" vertex="1" parent="Orui0hAEhWIHDiH9NPAQ-92">
          <mxGeometry width="80" height="20" as="geometry" />
        </mxCell>
        <mxCell id="Orui0hAEhWIHDiH9NPAQ-95" value="    +" style="shape=waypoint;sketch=0;fillStyle=solid;size=6;pointerEvents=1;points=[];fillColor=none;resizable=0;rotatable=0;perimeter=centerPerimeter;snapToPoint=1;align=left;" vertex="1" parent="Orui0hAEhWIHDiH9NPAQ-92">
          <mxGeometry y="20" width="20" height="20" as="geometry" />
        </mxCell>
        <mxCell id="Orui0hAEhWIHDiH9NPAQ-96" value="    -" style="shape=waypoint;sketch=0;fillStyle=solid;size=6;pointerEvents=1;points=[];fillColor=default;resizable=0;rotatable=0;perimeter=centerPerimeter;snapToPoint=1;align=left;" vertex="1" parent="Orui0hAEhWIHDiH9NPAQ-92">
          <mxGeometry y="40" width="20" height="20" as="geometry" />
        </mxCell>
        <mxCell id="Orui0hAEhWIHDiH9NPAQ-97" value="" style="rounded=0;whiteSpace=wrap;html=1;" vertex="1" parent="Orui0hAEhWIHDiH9NPAQ-92">
          <mxGeometry y="60" width="80" height="99.99999999999999" as="geometry" />
        </mxCell>
        <mxCell id="Orui0hAEhWIHDiH9NPAQ-98" value="Encoder 2" style="text;html=1;align=center;verticalAlign=middle;whiteSpace=wrap;rounded=0;" vertex="1" parent="Orui0hAEhWIHDiH9NPAQ-92">
          <mxGeometry x="10" y="60" width="60" height="20" as="geometry" />
        </mxCell>
        <mxCell id="Orui0hAEhWIHDiH9NPAQ-99" value="    VCC (3,3V)" style="shape=waypoint;sketch=0;fillStyle=solid;size=6;pointerEvents=1;points=[];fillColor=none;resizable=0;rotatable=0;perimeter=centerPerimeter;snapToPoint=1;align=left;" vertex="1" parent="Orui0hAEhWIHDiH9NPAQ-92">
          <mxGeometry y="80" width="20" height="20" as="geometry" />
        </mxCell>
        <mxCell id="Orui0hAEhWIHDiH9NPAQ-100" value="    GND" style="shape=waypoint;sketch=0;fillStyle=solid;size=6;pointerEvents=1;points=[];fillColor=none;resizable=0;rotatable=0;perimeter=centerPerimeter;snapToPoint=1;align=left;" vertex="1" parent="Orui0hAEhWIHDiH9NPAQ-92">
          <mxGeometry y="100" width="20" height="20" as="geometry" />
        </mxCell>
        <mxCell id="Orui0hAEhWIHDiH9NPAQ-101" value="    Trigger A" style="shape=waypoint;sketch=0;fillStyle=solid;size=6;pointerEvents=1;points=[];fillColor=none;resizable=0;rotatable=0;perimeter=centerPerimeter;snapToPoint=1;align=left;" vertex="1" parent="Orui0hAEhWIHDiH9NPAQ-92">
          <mxGeometry y="120" width="20" height="20" as="geometry" />
        </mxCell>
        <mxCell id="Orui0hAEhWIHDiH9NPAQ-102" value="    Trigger B" style="shape=waypoint;sketch=0;fillStyle=solid;size=6;pointerEvents=1;points=[];fillColor=none;resizable=0;rotatable=0;perimeter=centerPerimeter;snapToPoint=1;align=left;" vertex="1" parent="Orui0hAEhWIHDiH9NPAQ-92">
          <mxGeometry y="140" width="20" height="20" as="geometry" />
        </mxCell>
        <mxCell id="Orui0hAEhWIHDiH9NPAQ-114" value="" style="group" vertex="1" connectable="0" parent="1">
          <mxGeometry x="320" y="-320" width="80" height="160" as="geometry" />
        </mxCell>
        <mxCell id="Orui0hAEhWIHDiH9NPAQ-115" value="" style="rounded=0;whiteSpace=wrap;html=1;" vertex="1" parent="Orui0hAEhWIHDiH9NPAQ-114">
          <mxGeometry width="80" height="130" as="geometry" />
        </mxCell>
        <mxCell id="Orui0hAEhWIHDiH9NPAQ-116" value="Motor 3 (BR)" style="text;html=1;align=center;verticalAlign=middle;whiteSpace=wrap;rounded=0;" vertex="1" parent="Orui0hAEhWIHDiH9NPAQ-114">
          <mxGeometry width="80" height="20" as="geometry" />
        </mxCell>
        <mxCell id="Orui0hAEhWIHDiH9NPAQ-117" value="    +" style="shape=waypoint;sketch=0;fillStyle=solid;size=6;pointerEvents=1;points=[];fillColor=none;resizable=0;rotatable=0;perimeter=centerPerimeter;snapToPoint=1;align=left;" vertex="1" parent="Orui0hAEhWIHDiH9NPAQ-114">
          <mxGeometry y="20" width="20" height="20" as="geometry" />
        </mxCell>
        <mxCell id="Orui0hAEhWIHDiH9NPAQ-118" value="    -" style="shape=waypoint;sketch=0;fillStyle=solid;size=6;pointerEvents=1;points=[];fillColor=default;resizable=0;rotatable=0;perimeter=centerPerimeter;snapToPoint=1;align=left;" vertex="1" parent="Orui0hAEhWIHDiH9NPAQ-114">
          <mxGeometry y="40" width="20" height="20" as="geometry" />
        </mxCell>
        <mxCell id="Orui0hAEhWIHDiH9NPAQ-119" value="" style="rounded=0;whiteSpace=wrap;html=1;" vertex="1" parent="Orui0hAEhWIHDiH9NPAQ-114">
          <mxGeometry y="60" width="80" height="99.99999999999999" as="geometry" />
        </mxCell>
        <mxCell id="Orui0hAEhWIHDiH9NPAQ-120" value="Encoder 3" style="text;html=1;align=center;verticalAlign=middle;whiteSpace=wrap;rounded=0;" vertex="1" parent="Orui0hAEhWIHDiH9NPAQ-114">
          <mxGeometry x="10" y="60" width="60" height="20" as="geometry" />
        </mxCell>
        <mxCell id="Orui0hAEhWIHDiH9NPAQ-121" value="    VCC (3,3V)" style="shape=waypoint;sketch=0;fillStyle=solid;size=6;pointerEvents=1;points=[];fillColor=none;resizable=0;rotatable=0;perimeter=centerPerimeter;snapToPoint=1;align=left;" vertex="1" parent="Orui0hAEhWIHDiH9NPAQ-114">
          <mxGeometry y="80" width="20" height="20" as="geometry" />
        </mxCell>
        <mxCell id="Orui0hAEhWIHDiH9NPAQ-122" value="    GND" style="shape=waypoint;sketch=0;fillStyle=solid;size=6;pointerEvents=1;points=[];fillColor=none;resizable=0;rotatable=0;perimeter=centerPerimeter;snapToPoint=1;align=left;" vertex="1" parent="Orui0hAEhWIHDiH9NPAQ-114">
          <mxGeometry y="100" width="20" height="20" as="geometry" />
        </mxCell>
        <mxCell id="Orui0hAEhWIHDiH9NPAQ-123" value="    Trigger A" style="shape=waypoint;sketch=0;fillStyle=solid;size=6;pointerEvents=1;points=[];fillColor=none;resizable=0;rotatable=0;perimeter=centerPerimeter;snapToPoint=1;align=left;" vertex="1" parent="Orui0hAEhWIHDiH9NPAQ-114">
          <mxGeometry y="120" width="20" height="20" as="geometry" />
        </mxCell>
        <mxCell id="Orui0hAEhWIHDiH9NPAQ-124" value="    Trigger B" style="shape=waypoint;sketch=0;fillStyle=solid;size=6;pointerEvents=1;points=[];fillColor=none;resizable=0;rotatable=0;perimeter=centerPerimeter;snapToPoint=1;align=left;" vertex="1" parent="Orui0hAEhWIHDiH9NPAQ-114">
          <mxGeometry y="140" width="20" height="20" as="geometry" />
        </mxCell>
        <mxCell id="Orui0hAEhWIHDiH9NPAQ-154" value="" style="group" vertex="1" connectable="0" parent="1">
          <mxGeometry x="-300" y="-840" width="130" height="60" as="geometry" />
        </mxCell>
        <mxCell id="Orui0hAEhWIHDiH9NPAQ-149" value="" style="rounded=0;whiteSpace=wrap;html=1;" vertex="1" parent="Orui0hAEhWIHDiH9NPAQ-154">
          <mxGeometry width="130" height="60" as="geometry" />
        </mxCell>
        <mxCell id="Orui0hAEhWIHDiH9NPAQ-150" value="LiPo" style="text;html=1;align=center;verticalAlign=middle;whiteSpace=wrap;rounded=0;" vertex="1" parent="Orui0hAEhWIHDiH9NPAQ-154">
          <mxGeometry width="130" height="20" as="geometry" />
        </mxCell>
        <mxCell id="Orui0hAEhWIHDiH9NPAQ-151" value="VCC (25.2V - 20.5V    " style="shape=waypoint;sketch=0;fillStyle=solid;size=6;pointerEvents=1;points=[];fillColor=none;resizable=0;rotatable=0;perimeter=centerPerimeter;snapToPoint=1;align=right;" vertex="1" parent="Orui0hAEhWIHDiH9NPAQ-154">
          <mxGeometry x="110" y="19.99666666666667" width="20" height="20" as="geometry" />
        </mxCell>
        <mxCell id="Orui0hAEhWIHDiH9NPAQ-152" value="GND    " style="shape=waypoint;sketch=0;fillStyle=solid;size=6;pointerEvents=1;points=[];fillColor=none;resizable=0;rotatable=0;perimeter=centerPerimeter;snapToPoint=1;align=right;" vertex="1" parent="Orui0hAEhWIHDiH9NPAQ-154">
          <mxGeometry x="110" y="39.99333333333334" width="20" height="20" as="geometry" />
        </mxCell>
        <mxCell id="Orui0hAEhWIHDiH9NPAQ-153" value="" style="edgeStyle=segmentEdgeStyle;endArrow=none;html=1;curved=0;rounded=0;endSize=8;startSize=8;startFill=0;entryX=0.66;entryY=-0.058;entryDx=0;entryDy=0;entryPerimeter=0;" edge="1" parent="Orui0hAEhWIHDiH9NPAQ-154" source="Orui0hAEhWIHDiH9NPAQ-152" target="Orui0hAEhWIHDiH9NPAQ-152">
          <mxGeometry width="50" height="50" relative="1" as="geometry">
            <mxPoint x="40" y="93.33333333333337" as="sourcePoint" />
            <mxPoint y="66.66666666666663" as="targetPoint" />
            <Array as="points" />
          </mxGeometry>
        </mxCell>
        <mxCell id="Orui0hAEhWIHDiH9NPAQ-155" value="" style="group" vertex="1" connectable="0" parent="1">
          <mxGeometry x="750" y="-520" width="130" height="60" as="geometry" />
        </mxCell>
        <mxCell id="Orui0hAEhWIHDiH9NPAQ-156" value="" style="rounded=0;whiteSpace=wrap;html=1;" vertex="1" parent="Orui0hAEhWIHDiH9NPAQ-155">
          <mxGeometry width="130" height="60" as="geometry" />
        </mxCell>
        <mxCell id="Orui0hAEhWIHDiH9NPAQ-157" value="LiPo" style="text;html=1;align=center;verticalAlign=middle;whiteSpace=wrap;rounded=0;" vertex="1" parent="Orui0hAEhWIHDiH9NPAQ-155">
          <mxGeometry width="130" height="20" as="geometry" />
        </mxCell>
        <mxCell id="Orui0hAEhWIHDiH9NPAQ-158" value="VCC (25.2V - 20.5V    " style="shape=waypoint;sketch=0;fillStyle=solid;size=6;pointerEvents=1;points=[];fillColor=none;resizable=0;rotatable=0;perimeter=centerPerimeter;snapToPoint=1;align=right;" vertex="1" parent="Orui0hAEhWIHDiH9NPAQ-155">
          <mxGeometry x="110" y="19.99666666666667" width="20" height="20" as="geometry" />
        </mxCell>
        <mxCell id="Orui0hAEhWIHDiH9NPAQ-159" value="GND    " style="shape=waypoint;sketch=0;fillStyle=solid;size=6;pointerEvents=1;points=[];fillColor=none;resizable=0;rotatable=0;perimeter=centerPerimeter;snapToPoint=1;align=right;" vertex="1" parent="Orui0hAEhWIHDiH9NPAQ-155">
          <mxGeometry x="110" y="39.99333333333334" width="20" height="20" as="geometry" />
        </mxCell>
        <mxCell id="Orui0hAEhWIHDiH9NPAQ-160" value="" style="edgeStyle=segmentEdgeStyle;endArrow=none;html=1;curved=0;rounded=0;endSize=8;startSize=8;startFill=0;entryX=0.66;entryY=-0.058;entryDx=0;entryDy=0;entryPerimeter=0;" edge="1" parent="Orui0hAEhWIHDiH9NPAQ-155" source="Orui0hAEhWIHDiH9NPAQ-159" target="Orui0hAEhWIHDiH9NPAQ-159">
          <mxGeometry width="50" height="50" relative="1" as="geometry">
            <mxPoint x="40" y="93.33333333333337" as="sourcePoint" />
            <mxPoint y="66.66666666666663" as="targetPoint" />
            <Array as="points" />
          </mxGeometry>
        </mxCell>
        <mxCell id="Orui0hAEhWIHDiH9NPAQ-171" value="" style="group" vertex="1" connectable="0" parent="1">
          <mxGeometry x="-150.55" y="-840" width="170" height="60" as="geometry" />
        </mxCell>
        <mxCell id="Orui0hAEhWIHDiH9NPAQ-161" value="" style="rounded=0;whiteSpace=wrap;html=1;" vertex="1" parent="Orui0hAEhWIHDiH9NPAQ-171">
          <mxGeometry width="170" height="60" as="geometry" />
        </mxCell>
        <mxCell id="Orui0hAEhWIHDiH9NPAQ-164" value="Low voltage Disconnect switch" style="text;html=1;align=center;verticalAlign=middle;whiteSpace=wrap;rounded=0;" vertex="1" parent="Orui0hAEhWIHDiH9NPAQ-171">
          <mxGeometry width="170" height="20" as="geometry" />
        </mxCell>
        <mxCell id="Orui0hAEhWIHDiH9NPAQ-165" value="    VCC IN" style="shape=waypoint;sketch=0;fillStyle=solid;size=6;pointerEvents=1;points=[];fillColor=none;resizable=0;rotatable=0;perimeter=centerPerimeter;snapToPoint=1;align=left;" vertex="1" parent="Orui0hAEhWIHDiH9NPAQ-171">
          <mxGeometry y="20" width="20" height="20" as="geometry" />
        </mxCell>
        <mxCell id="Orui0hAEhWIHDiH9NPAQ-166" value="    GND IN" style="shape=waypoint;sketch=0;fillStyle=solid;size=6;pointerEvents=1;points=[];fillColor=none;resizable=0;rotatable=0;perimeter=centerPerimeter;snapToPoint=1;align=left;" vertex="1" parent="Orui0hAEhWIHDiH9NPAQ-171">
          <mxGeometry y="40" width="20" height="20" as="geometry" />
        </mxCell>
        <mxCell id="Orui0hAEhWIHDiH9NPAQ-167" value="GND OUT    " style="shape=waypoint;sketch=0;fillStyle=solid;size=6;pointerEvents=1;points=[];fillColor=none;resizable=0;rotatable=0;perimeter=centerPerimeter;snapToPoint=1;align=right;" vertex="1" parent="Orui0hAEhWIHDiH9NPAQ-171">
          <mxGeometry x="150" y="40" width="20" height="20" as="geometry" />
        </mxCell>
        <mxCell id="Orui0hAEhWIHDiH9NPAQ-168" value="VCC OUT    " style="shape=waypoint;sketch=0;fillStyle=solid;size=6;pointerEvents=1;points=[];fillColor=none;resizable=0;rotatable=0;perimeter=centerPerimeter;snapToPoint=1;align=right;" vertex="1" parent="Orui0hAEhWIHDiH9NPAQ-171">
          <mxGeometry x="150" y="20" width="20" height="20" as="geometry" />
        </mxCell>
        <mxCell id="Orui0hAEhWIHDiH9NPAQ-173" value="" style="group" vertex="1" connectable="0" parent="1">
          <mxGeometry x="750" y="-450" width="170" height="60" as="geometry" />
        </mxCell>
        <mxCell id="Orui0hAEhWIHDiH9NPAQ-174" value="" style="rounded=0;whiteSpace=wrap;html=1;" vertex="1" parent="Orui0hAEhWIHDiH9NPAQ-173">
          <mxGeometry width="170" height="60" as="geometry" />
        </mxCell>
        <mxCell id="Orui0hAEhWIHDiH9NPAQ-175" value="Low voltage Disconnect switch" style="text;html=1;align=center;verticalAlign=middle;whiteSpace=wrap;rounded=0;" vertex="1" parent="Orui0hAEhWIHDiH9NPAQ-173">
          <mxGeometry width="170" height="20" as="geometry" />
        </mxCell>
        <mxCell id="Orui0hAEhWIHDiH9NPAQ-176" value="    VCC IN" style="shape=waypoint;sketch=0;fillStyle=solid;size=6;pointerEvents=1;points=[];fillColor=none;resizable=0;rotatable=0;perimeter=centerPerimeter;snapToPoint=1;align=left;" vertex="1" parent="Orui0hAEhWIHDiH9NPAQ-173">
          <mxGeometry y="20" width="20" height="20" as="geometry" />
        </mxCell>
        <mxCell id="Orui0hAEhWIHDiH9NPAQ-177" value="    GND IN" style="shape=waypoint;sketch=0;fillStyle=solid;size=6;pointerEvents=1;points=[];fillColor=none;resizable=0;rotatable=0;perimeter=centerPerimeter;snapToPoint=1;align=left;" vertex="1" parent="Orui0hAEhWIHDiH9NPAQ-173">
          <mxGeometry y="40" width="20" height="20" as="geometry" />
        </mxCell>
        <mxCell id="Orui0hAEhWIHDiH9NPAQ-178" value="GND OUT    " style="shape=waypoint;sketch=0;fillStyle=solid;size=6;pointerEvents=1;points=[];fillColor=none;resizable=0;rotatable=0;perimeter=centerPerimeter;snapToPoint=1;align=right;" vertex="1" parent="Orui0hAEhWIHDiH9NPAQ-173">
          <mxGeometry x="150" y="40" width="20" height="20" as="geometry" />
        </mxCell>
        <mxCell id="Orui0hAEhWIHDiH9NPAQ-179" value="VCC OUT    " style="shape=waypoint;sketch=0;fillStyle=solid;size=6;pointerEvents=1;points=[];fillColor=none;resizable=0;rotatable=0;perimeter=centerPerimeter;snapToPoint=1;align=right;" vertex="1" parent="Orui0hAEhWIHDiH9NPAQ-173">
          <mxGeometry x="150" y="20" width="20" height="20" as="geometry" />
        </mxCell>
        <mxCell id="Orui0hAEhWIHDiH9NPAQ-180" style="edgeStyle=orthogonalEdgeStyle;rounded=0;orthogonalLoop=1;jettySize=auto;html=1;endArrow=none;startFill=0;" edge="1" parent="1" source="Orui0hAEhWIHDiH9NPAQ-151" target="Orui0hAEhWIHDiH9NPAQ-165">
          <mxGeometry relative="1" as="geometry" />
        </mxCell>
        <mxCell id="Orui0hAEhWIHDiH9NPAQ-181" style="edgeStyle=orthogonalEdgeStyle;rounded=0;orthogonalLoop=1;jettySize=auto;html=1;entryX=0.595;entryY=0.36;entryDx=0;entryDy=0;entryPerimeter=0;endArrow=none;startFill=0;" edge="1" parent="1" source="Orui0hAEhWIHDiH9NPAQ-152" target="Orui0hAEhWIHDiH9NPAQ-166">
          <mxGeometry relative="1" as="geometry" />
        </mxCell>
        <mxCell id="Orui0hAEhWIHDiH9NPAQ-186" value="" style="group" vertex="1" connectable="0" parent="1">
          <mxGeometry x="840" y="-380" width="100.55333333333328" height="120" as="geometry" />
        </mxCell>
        <mxCell id="Orui0hAEhWIHDiH9NPAQ-66" value="" style="rounded=0;whiteSpace=wrap;html=1;" vertex="1" parent="Orui0hAEhWIHDiH9NPAQ-186">
          <mxGeometry x="0.5499999999999545" width="100" height="120" as="geometry" />
        </mxCell>
        <mxCell id="Orui0hAEhWIHDiH9NPAQ-28" value="Motortreiber 1" style="text;html=1;align=center;verticalAlign=middle;whiteSpace=wrap;rounded=0;" vertex="1" parent="Orui0hAEhWIHDiH9NPAQ-186">
          <mxGeometry width="100.55" height="20" as="geometry" />
        </mxCell>
        <mxCell id="Orui0hAEhWIHDiH9NPAQ-29" value="+    " style="shape=waypoint;sketch=0;fillStyle=solid;size=6;pointerEvents=1;points=[];fillColor=none;resizable=0;rotatable=0;perimeter=centerPerimeter;snapToPoint=1;align=right;" vertex="1" parent="Orui0hAEhWIHDiH9NPAQ-186">
          <mxGeometry x="80.55333333333328" y="20" width="20" height="20" as="geometry" />
        </mxCell>
        <mxCell id="Orui0hAEhWIHDiH9NPAQ-30" value="-    " style="shape=waypoint;sketch=0;fillStyle=solid;size=6;pointerEvents=1;points=[];fillColor=none;resizable=0;rotatable=0;perimeter=centerPerimeter;snapToPoint=1;align=right;" vertex="1" parent="Orui0hAEhWIHDiH9NPAQ-186">
          <mxGeometry x="80.55333333333328" y="40" width="20" height="20" as="geometry" />
        </mxCell>
        <mxCell id="Orui0hAEhWIHDiH9NPAQ-59" value="    PWM" style="shape=waypoint;sketch=0;fillStyle=solid;size=6;pointerEvents=1;points=[];fillColor=none;resizable=0;rotatable=0;perimeter=centerPerimeter;snapToPoint=1;align=left;" vertex="1" parent="Orui0hAEhWIHDiH9NPAQ-186">
          <mxGeometry x="0.5499999999999545" y="60" width="20" height="20" as="geometry" />
        </mxCell>
        <mxCell id="Orui0hAEhWIHDiH9NPAQ-60" value="    Forward" style="shape=waypoint;sketch=0;fillStyle=solid;size=6;pointerEvents=1;points=[];fillColor=none;resizable=0;rotatable=0;perimeter=centerPerimeter;snapToPoint=1;align=left;" vertex="1" parent="Orui0hAEhWIHDiH9NPAQ-186">
          <mxGeometry x="0.5499999999999545" y="80" width="20" height="20" as="geometry" />
        </mxCell>
        <mxCell id="Orui0hAEhWIHDiH9NPAQ-63" value="    Backward" style="shape=waypoint;sketch=0;fillStyle=solid;size=6;pointerEvents=1;points=[];fillColor=none;resizable=0;rotatable=0;perimeter=centerPerimeter;snapToPoint=1;align=left;" vertex="1" parent="Orui0hAEhWIHDiH9NPAQ-186">
          <mxGeometry x="0.5499999999999545" y="100" width="20" height="20" as="geometry" />
        </mxCell>
        <mxCell id="Orui0hAEhWIHDiH9NPAQ-182" value="    VCC IN" style="shape=waypoint;sketch=0;fillStyle=solid;size=6;pointerEvents=1;points=[];fillColor=none;resizable=0;rotatable=0;perimeter=centerPerimeter;snapToPoint=1;align=left;" vertex="1" parent="Orui0hAEhWIHDiH9NPAQ-186">
          <mxGeometry x="0.5499999999999545" y="20" width="20" height="20" as="geometry" />
        </mxCell>
        <mxCell id="Orui0hAEhWIHDiH9NPAQ-183" value="    GND IN" style="shape=waypoint;sketch=0;fillStyle=solid;size=6;pointerEvents=1;points=[];fillColor=none;resizable=0;rotatable=0;perimeter=centerPerimeter;snapToPoint=1;align=left;" vertex="1" parent="Orui0hAEhWIHDiH9NPAQ-186">
          <mxGeometry x="0.5499999999999545" y="40" width="20" height="20" as="geometry" />
        </mxCell>
        <mxCell id="Orui0hAEhWIHDiH9NPAQ-187" value="" style="group" vertex="1" connectable="0" parent="1">
          <mxGeometry x="190" y="-340" width="100.55333333333328" height="120" as="geometry" />
        </mxCell>
        <mxCell id="Orui0hAEhWIHDiH9NPAQ-188" value="" style="rounded=0;whiteSpace=wrap;html=1;" vertex="1" parent="Orui0hAEhWIHDiH9NPAQ-187">
          <mxGeometry x="0.5499999999999545" width="100" height="120" as="geometry" />
        </mxCell>
        <mxCell id="Orui0hAEhWIHDiH9NPAQ-189" value="Motortreiber 3" style="text;html=1;align=center;verticalAlign=middle;whiteSpace=wrap;rounded=0;" vertex="1" parent="Orui0hAEhWIHDiH9NPAQ-187">
          <mxGeometry width="100.55" height="20" as="geometry" />
        </mxCell>
        <mxCell id="Orui0hAEhWIHDiH9NPAQ-190" value="+    " style="shape=waypoint;sketch=0;fillStyle=solid;size=6;pointerEvents=1;points=[];fillColor=none;resizable=0;rotatable=0;perimeter=centerPerimeter;snapToPoint=1;align=right;" vertex="1" parent="Orui0hAEhWIHDiH9NPAQ-187">
          <mxGeometry x="80.55333333333328" y="20" width="20" height="20" as="geometry" />
        </mxCell>
        <mxCell id="Orui0hAEhWIHDiH9NPAQ-191" value="-    " style="shape=waypoint;sketch=0;fillStyle=solid;size=6;pointerEvents=1;points=[];fillColor=none;resizable=0;rotatable=0;perimeter=centerPerimeter;snapToPoint=1;align=right;" vertex="1" parent="Orui0hAEhWIHDiH9NPAQ-187">
          <mxGeometry x="80.55333333333328" y="40" width="20" height="20" as="geometry" />
        </mxCell>
        <mxCell id="Orui0hAEhWIHDiH9NPAQ-192" value="    PWM" style="shape=waypoint;sketch=0;fillStyle=solid;size=6;pointerEvents=1;points=[];fillColor=none;resizable=0;rotatable=0;perimeter=centerPerimeter;snapToPoint=1;align=left;" vertex="1" parent="Orui0hAEhWIHDiH9NPAQ-187">
          <mxGeometry x="0.5499999999999545" y="60" width="20" height="20" as="geometry" />
        </mxCell>
        <mxCell id="Orui0hAEhWIHDiH9NPAQ-193" value="    Forward" style="shape=waypoint;sketch=0;fillStyle=solid;size=6;pointerEvents=1;points=[];fillColor=none;resizable=0;rotatable=0;perimeter=centerPerimeter;snapToPoint=1;align=left;" vertex="1" parent="Orui0hAEhWIHDiH9NPAQ-187">
          <mxGeometry x="0.5499999999999545" y="80" width="20" height="20" as="geometry" />
        </mxCell>
        <mxCell id="Orui0hAEhWIHDiH9NPAQ-194" value="    Backward" style="shape=waypoint;sketch=0;fillStyle=solid;size=6;pointerEvents=1;points=[];fillColor=none;resizable=0;rotatable=0;perimeter=centerPerimeter;snapToPoint=1;align=left;" vertex="1" parent="Orui0hAEhWIHDiH9NPAQ-187">
          <mxGeometry x="0.5499999999999545" y="100" width="20" height="20" as="geometry" />
        </mxCell>
        <mxCell id="Orui0hAEhWIHDiH9NPAQ-195" value="    VCC IN" style="shape=waypoint;sketch=0;fillStyle=solid;size=6;pointerEvents=1;points=[];fillColor=none;resizable=0;rotatable=0;perimeter=centerPerimeter;snapToPoint=1;align=left;" vertex="1" parent="Orui0hAEhWIHDiH9NPAQ-187">
          <mxGeometry x="0.5499999999999545" y="20" width="20" height="20" as="geometry" />
        </mxCell>
        <mxCell id="Orui0hAEhWIHDiH9NPAQ-196" value="    GND IN" style="shape=waypoint;sketch=0;fillStyle=solid;size=6;pointerEvents=1;points=[];fillColor=none;resizable=0;rotatable=0;perimeter=centerPerimeter;snapToPoint=1;align=left;" vertex="1" parent="Orui0hAEhWIHDiH9NPAQ-187">
          <mxGeometry x="0.5499999999999545" y="40" width="20" height="20" as="geometry" />
        </mxCell>
        <mxCell id="Orui0hAEhWIHDiH9NPAQ-198" value="" style="group" vertex="1" connectable="0" parent="1">
          <mxGeometry x="190" y="-520" width="100.55333333333328" height="120" as="geometry" />
        </mxCell>
        <mxCell id="Orui0hAEhWIHDiH9NPAQ-199" value="" style="rounded=0;whiteSpace=wrap;html=1;" vertex="1" parent="Orui0hAEhWIHDiH9NPAQ-198">
          <mxGeometry x="0.5499999999999545" width="100" height="120" as="geometry" />
        </mxCell>
        <mxCell id="Orui0hAEhWIHDiH9NPAQ-200" value="Motortreiber 2" style="text;html=1;align=center;verticalAlign=middle;whiteSpace=wrap;rounded=0;" vertex="1" parent="Orui0hAEhWIHDiH9NPAQ-198">
          <mxGeometry width="100.55" height="20" as="geometry" />
        </mxCell>
        <mxCell id="Orui0hAEhWIHDiH9NPAQ-201" value="+     " style="shape=waypoint;sketch=0;fillStyle=solid;size=6;pointerEvents=1;points=[];fillColor=none;resizable=0;rotatable=0;perimeter=centerPerimeter;snapToPoint=1;align=right;" vertex="1" parent="Orui0hAEhWIHDiH9NPAQ-198">
          <mxGeometry x="80.55333333333328" y="20" width="20" height="20" as="geometry" />
        </mxCell>
        <mxCell id="Orui0hAEhWIHDiH9NPAQ-202" value="-    " style="shape=waypoint;sketch=0;fillStyle=solid;size=6;pointerEvents=1;points=[];fillColor=none;resizable=0;rotatable=0;perimeter=centerPerimeter;snapToPoint=1;align=right;" vertex="1" parent="Orui0hAEhWIHDiH9NPAQ-198">
          <mxGeometry x="80.55333333333328" y="40" width="20" height="20" as="geometry" />
        </mxCell>
        <mxCell id="Orui0hAEhWIHDiH9NPAQ-203" value="    PWM" style="shape=waypoint;sketch=0;fillStyle=solid;size=6;pointerEvents=1;points=[];fillColor=none;resizable=0;rotatable=0;perimeter=centerPerimeter;snapToPoint=1;align=left;" vertex="1" parent="Orui0hAEhWIHDiH9NPAQ-198">
          <mxGeometry x="0.5499999999999545" y="60" width="20" height="20" as="geometry" />
        </mxCell>
        <mxCell id="Orui0hAEhWIHDiH9NPAQ-204" value="    Forward" style="shape=waypoint;sketch=0;fillStyle=solid;size=6;pointerEvents=1;points=[];fillColor=none;resizable=0;rotatable=0;perimeter=centerPerimeter;snapToPoint=1;align=left;" vertex="1" parent="Orui0hAEhWIHDiH9NPAQ-198">
          <mxGeometry x="0.5499999999999545" y="80" width="20" height="20" as="geometry" />
        </mxCell>
        <mxCell id="Orui0hAEhWIHDiH9NPAQ-205" value="    Backward" style="shape=waypoint;sketch=0;fillStyle=solid;size=6;pointerEvents=1;points=[];fillColor=none;resizable=0;rotatable=0;perimeter=centerPerimeter;snapToPoint=1;align=left;" vertex="1" parent="Orui0hAEhWIHDiH9NPAQ-198">
          <mxGeometry x="0.5499999999999545" y="100" width="20" height="20" as="geometry" />
        </mxCell>
        <mxCell id="Orui0hAEhWIHDiH9NPAQ-206" value="    VCC IN" style="shape=waypoint;sketch=0;fillStyle=solid;size=6;pointerEvents=1;points=[];fillColor=none;resizable=0;rotatable=0;perimeter=centerPerimeter;snapToPoint=1;align=left;" vertex="1" parent="Orui0hAEhWIHDiH9NPAQ-198">
          <mxGeometry x="0.5499999999999545" y="20" width="20" height="20" as="geometry" />
        </mxCell>
        <mxCell id="Orui0hAEhWIHDiH9NPAQ-207" value="    GND IN" style="shape=waypoint;sketch=0;fillStyle=solid;size=6;pointerEvents=1;points=[];fillColor=none;resizable=0;rotatable=0;perimeter=centerPerimeter;snapToPoint=1;align=left;" vertex="1" parent="Orui0hAEhWIHDiH9NPAQ-198">
          <mxGeometry x="0.5499999999999545" y="40" width="20" height="20" as="geometry" />
        </mxCell>
        <mxCell id="Orui0hAEhWIHDiH9NPAQ-208" value="" style="group" vertex="1" connectable="0" parent="1">
          <mxGeometry x="190" y="-700" width="100.55333333333328" height="120" as="geometry" />
        </mxCell>
        <mxCell id="Orui0hAEhWIHDiH9NPAQ-209" value="" style="rounded=0;whiteSpace=wrap;html=1;" vertex="1" parent="Orui0hAEhWIHDiH9NPAQ-208">
          <mxGeometry x="0.5499999999999545" width="100" height="120" as="geometry" />
        </mxCell>
        <mxCell id="Orui0hAEhWIHDiH9NPAQ-210" value="Motortreiber 1" style="text;html=1;align=center;verticalAlign=middle;whiteSpace=wrap;rounded=0;" vertex="1" parent="Orui0hAEhWIHDiH9NPAQ-208">
          <mxGeometry width="100.55" height="20" as="geometry" />
        </mxCell>
        <mxCell id="Orui0hAEhWIHDiH9NPAQ-211" value="+    " style="shape=waypoint;sketch=0;fillStyle=solid;size=6;pointerEvents=1;points=[];fillColor=none;resizable=0;rotatable=0;perimeter=centerPerimeter;snapToPoint=1;align=right;" vertex="1" parent="Orui0hAEhWIHDiH9NPAQ-208">
          <mxGeometry x="80.55333333333328" y="20" width="20" height="20" as="geometry" />
        </mxCell>
        <mxCell id="Orui0hAEhWIHDiH9NPAQ-212" value="-    " style="shape=waypoint;sketch=0;fillStyle=solid;size=6;pointerEvents=1;points=[];fillColor=none;resizable=0;rotatable=0;perimeter=centerPerimeter;snapToPoint=1;align=right;" vertex="1" parent="Orui0hAEhWIHDiH9NPAQ-208">
          <mxGeometry x="80.55333333333328" y="40" width="20" height="20" as="geometry" />
        </mxCell>
        <mxCell id="Orui0hAEhWIHDiH9NPAQ-213" value="    PWM" style="shape=waypoint;sketch=0;fillStyle=solid;size=6;pointerEvents=1;points=[];fillColor=none;resizable=0;rotatable=0;perimeter=centerPerimeter;snapToPoint=1;align=left;" vertex="1" parent="Orui0hAEhWIHDiH9NPAQ-208">
          <mxGeometry x="0.5499999999999545" y="60" width="20" height="20" as="geometry" />
        </mxCell>
        <mxCell id="Orui0hAEhWIHDiH9NPAQ-214" value="    Forward" style="shape=waypoint;sketch=0;fillStyle=solid;size=6;pointerEvents=1;points=[];fillColor=none;resizable=0;rotatable=0;perimeter=centerPerimeter;snapToPoint=1;align=left;" vertex="1" parent="Orui0hAEhWIHDiH9NPAQ-208">
          <mxGeometry x="0.5499999999999545" y="80" width="20" height="20" as="geometry" />
        </mxCell>
        <mxCell id="Orui0hAEhWIHDiH9NPAQ-215" value="    Backward" style="shape=waypoint;sketch=0;fillStyle=solid;size=6;pointerEvents=1;points=[];fillColor=none;resizable=0;rotatable=0;perimeter=centerPerimeter;snapToPoint=1;align=left;" vertex="1" parent="Orui0hAEhWIHDiH9NPAQ-208">
          <mxGeometry x="0.5499999999999545" y="100" width="20" height="20" as="geometry" />
        </mxCell>
        <mxCell id="Orui0hAEhWIHDiH9NPAQ-216" value="    VCC IN" style="shape=waypoint;sketch=0;fillStyle=solid;size=6;pointerEvents=1;points=[];fillColor=none;resizable=0;rotatable=0;perimeter=centerPerimeter;snapToPoint=1;align=left;" vertex="1" parent="Orui0hAEhWIHDiH9NPAQ-208">
          <mxGeometry x="0.5499999999999545" y="20" width="20" height="20" as="geometry" />
        </mxCell>
        <mxCell id="Orui0hAEhWIHDiH9NPAQ-217" value="    GND IN" style="shape=waypoint;sketch=0;fillStyle=solid;size=6;pointerEvents=1;points=[];fillColor=none;resizable=0;rotatable=0;perimeter=centerPerimeter;snapToPoint=1;align=left;" vertex="1" parent="Orui0hAEhWIHDiH9NPAQ-208">
          <mxGeometry x="0.5499999999999545" y="40" width="20" height="20" as="geometry" />
        </mxCell>
        <mxCell id="Orui0hAEhWIHDiH9NPAQ-227" value="" style="group" vertex="1" connectable="0" parent="1">
          <mxGeometry x="20" y="-700" width="150" height="60" as="geometry" />
        </mxCell>
        <mxCell id="Orui0hAEhWIHDiH9NPAQ-226" value="" style="rounded=0;whiteSpace=wrap;html=1;" vertex="1" parent="Orui0hAEhWIHDiH9NPAQ-227">
          <mxGeometry width="150" height="60" as="geometry" />
        </mxCell>
        <mxCell id="Orui0hAEhWIHDiH9NPAQ-221" value="Stepdown Converter 1" style="text;html=1;align=center;verticalAlign=middle;whiteSpace=wrap;rounded=0;" vertex="1" parent="Orui0hAEhWIHDiH9NPAQ-227">
          <mxGeometry width="150" height="20" as="geometry" />
        </mxCell>
        <mxCell id="Orui0hAEhWIHDiH9NPAQ-222" value="    VCC IN" style="shape=waypoint;sketch=0;fillStyle=solid;size=6;pointerEvents=1;points=[];fillColor=none;resizable=0;rotatable=0;perimeter=centerPerimeter;snapToPoint=1;align=left;" vertex="1" parent="Orui0hAEhWIHDiH9NPAQ-227">
          <mxGeometry y="20" width="20" height="20" as="geometry" />
        </mxCell>
        <mxCell id="Orui0hAEhWIHDiH9NPAQ-223" value="    GND IN" style="shape=waypoint;sketch=0;fillStyle=solid;size=6;pointerEvents=1;points=[];fillColor=none;resizable=0;rotatable=0;perimeter=centerPerimeter;snapToPoint=1;align=left;" vertex="1" parent="Orui0hAEhWIHDiH9NPAQ-227">
          <mxGeometry y="40" width="20" height="20" as="geometry" />
        </mxCell>
        <mxCell id="Orui0hAEhWIHDiH9NPAQ-224" value="VCC OUT    " style="shape=waypoint;sketch=0;fillStyle=solid;size=6;pointerEvents=1;points=[];fillColor=none;resizable=0;rotatable=0;perimeter=centerPerimeter;snapToPoint=1;align=right;" vertex="1" parent="Orui0hAEhWIHDiH9NPAQ-227">
          <mxGeometry x="130" y="20" width="20" height="20" as="geometry" />
        </mxCell>
        <mxCell id="Orui0hAEhWIHDiH9NPAQ-225" value="GND OUT    " style="shape=waypoint;sketch=0;fillStyle=solid;size=6;pointerEvents=1;points=[];fillColor=none;resizable=0;rotatable=0;perimeter=centerPerimeter;snapToPoint=1;align=right;" vertex="1" parent="Orui0hAEhWIHDiH9NPAQ-227">
          <mxGeometry x="130" y="40" width="20" height="20" as="geometry" />
        </mxCell>
        <mxCell id="Orui0hAEhWIHDiH9NPAQ-228" value="" style="group" vertex="1" connectable="0" parent="1">
          <mxGeometry x="750" y="-180" width="150" height="60" as="geometry" />
        </mxCell>
        <mxCell id="Orui0hAEhWIHDiH9NPAQ-229" value="" style="rounded=0;whiteSpace=wrap;html=1;" vertex="1" parent="Orui0hAEhWIHDiH9NPAQ-228">
          <mxGeometry width="150" height="60" as="geometry" />
        </mxCell>
        <mxCell id="Orui0hAEhWIHDiH9NPAQ-230" value="Stepdown Converter" style="text;html=1;align=center;verticalAlign=middle;whiteSpace=wrap;rounded=0;" vertex="1" parent="Orui0hAEhWIHDiH9NPAQ-228">
          <mxGeometry width="150" height="20" as="geometry" />
        </mxCell>
        <mxCell id="Orui0hAEhWIHDiH9NPAQ-231" value="    VCC IN" style="shape=waypoint;sketch=0;fillStyle=solid;size=6;pointerEvents=1;points=[];fillColor=none;resizable=0;rotatable=0;perimeter=centerPerimeter;snapToPoint=1;align=left;" vertex="1" parent="Orui0hAEhWIHDiH9NPAQ-228">
          <mxGeometry y="20" width="20" height="20" as="geometry" />
        </mxCell>
        <mxCell id="Orui0hAEhWIHDiH9NPAQ-232" value="    GND IN" style="shape=waypoint;sketch=0;fillStyle=solid;size=6;pointerEvents=1;points=[];fillColor=none;resizable=0;rotatable=0;perimeter=centerPerimeter;snapToPoint=1;align=left;" vertex="1" parent="Orui0hAEhWIHDiH9NPAQ-228">
          <mxGeometry y="40" width="20" height="20" as="geometry" />
        </mxCell>
        <mxCell id="Orui0hAEhWIHDiH9NPAQ-233" value="VCC OUT    " style="shape=waypoint;sketch=0;fillStyle=solid;size=6;pointerEvents=1;points=[];fillColor=none;resizable=0;rotatable=0;perimeter=centerPerimeter;snapToPoint=1;align=right;" vertex="1" parent="Orui0hAEhWIHDiH9NPAQ-228">
          <mxGeometry x="130" y="20" width="20" height="20" as="geometry" />
        </mxCell>
        <mxCell id="Orui0hAEhWIHDiH9NPAQ-234" value="GND OUT    " style="shape=waypoint;sketch=0;fillStyle=solid;size=6;pointerEvents=1;points=[];fillColor=none;resizable=0;rotatable=0;perimeter=centerPerimeter;snapToPoint=1;align=right;" vertex="1" parent="Orui0hAEhWIHDiH9NPAQ-228">
          <mxGeometry x="130" y="40" width="20" height="20" as="geometry" />
        </mxCell>
        <mxCell id="Orui0hAEhWIHDiH9NPAQ-235" value="" style="group" vertex="1" connectable="0" parent="1">
          <mxGeometry x="20" y="-520" width="150" height="60" as="geometry" />
        </mxCell>
        <mxCell id="Orui0hAEhWIHDiH9NPAQ-236" value="" style="rounded=0;whiteSpace=wrap;html=1;" vertex="1" parent="Orui0hAEhWIHDiH9NPAQ-235">
          <mxGeometry width="150" height="60" as="geometry" />
        </mxCell>
        <mxCell id="Orui0hAEhWIHDiH9NPAQ-237" value="Stepdown Converter 2" style="text;html=1;align=center;verticalAlign=middle;whiteSpace=wrap;rounded=0;" vertex="1" parent="Orui0hAEhWIHDiH9NPAQ-235">
          <mxGeometry width="150" height="20" as="geometry" />
        </mxCell>
        <mxCell id="Orui0hAEhWIHDiH9NPAQ-238" value="    VCC IN" style="shape=waypoint;sketch=0;fillStyle=solid;size=6;pointerEvents=1;points=[];fillColor=none;resizable=0;rotatable=0;perimeter=centerPerimeter;snapToPoint=1;align=left;" vertex="1" parent="Orui0hAEhWIHDiH9NPAQ-235">
          <mxGeometry y="20" width="20" height="20" as="geometry" />
        </mxCell>
        <mxCell id="Orui0hAEhWIHDiH9NPAQ-239" value="    GND IN" style="shape=waypoint;sketch=0;fillStyle=solid;size=6;pointerEvents=1;points=[];fillColor=none;resizable=0;rotatable=0;perimeter=centerPerimeter;snapToPoint=1;align=left;" vertex="1" parent="Orui0hAEhWIHDiH9NPAQ-235">
          <mxGeometry y="40" width="20" height="20" as="geometry" />
        </mxCell>
        <mxCell id="Orui0hAEhWIHDiH9NPAQ-240" value="VCC OUT    " style="shape=waypoint;sketch=0;fillStyle=solid;size=6;pointerEvents=1;points=[];fillColor=none;resizable=0;rotatable=0;perimeter=centerPerimeter;snapToPoint=1;align=right;" vertex="1" parent="Orui0hAEhWIHDiH9NPAQ-235">
          <mxGeometry x="130" y="20" width="20" height="20" as="geometry" />
        </mxCell>
        <mxCell id="Orui0hAEhWIHDiH9NPAQ-241" value="GND OUT    " style="shape=waypoint;sketch=0;fillStyle=solid;size=6;pointerEvents=1;points=[];fillColor=none;resizable=0;rotatable=0;perimeter=centerPerimeter;snapToPoint=1;align=right;" vertex="1" parent="Orui0hAEhWIHDiH9NPAQ-235">
          <mxGeometry x="130" y="40" width="20" height="20" as="geometry" />
        </mxCell>
        <mxCell id="Orui0hAEhWIHDiH9NPAQ-242" value="" style="group" vertex="1" connectable="0" parent="1">
          <mxGeometry x="20" y="-340" width="150" height="60" as="geometry" />
        </mxCell>
        <mxCell id="Orui0hAEhWIHDiH9NPAQ-243" value="" style="rounded=0;whiteSpace=wrap;html=1;" vertex="1" parent="Orui0hAEhWIHDiH9NPAQ-242">
          <mxGeometry width="150" height="60" as="geometry" />
        </mxCell>
        <mxCell id="Orui0hAEhWIHDiH9NPAQ-244" value="Stepdown Converter 3" style="text;html=1;align=center;verticalAlign=middle;whiteSpace=wrap;rounded=0;" vertex="1" parent="Orui0hAEhWIHDiH9NPAQ-242">
          <mxGeometry width="150" height="20" as="geometry" />
        </mxCell>
        <mxCell id="Orui0hAEhWIHDiH9NPAQ-245" value="    VCC IN" style="shape=waypoint;sketch=0;fillStyle=solid;size=6;pointerEvents=1;points=[];fillColor=none;resizable=0;rotatable=0;perimeter=centerPerimeter;snapToPoint=1;align=left;" vertex="1" parent="Orui0hAEhWIHDiH9NPAQ-242">
          <mxGeometry y="20" width="20" height="20" as="geometry" />
        </mxCell>
        <mxCell id="Orui0hAEhWIHDiH9NPAQ-246" value="    GND IN" style="shape=waypoint;sketch=0;fillStyle=solid;size=6;pointerEvents=1;points=[];fillColor=none;resizable=0;rotatable=0;perimeter=centerPerimeter;snapToPoint=1;align=left;" vertex="1" parent="Orui0hAEhWIHDiH9NPAQ-242">
          <mxGeometry y="40" width="20" height="20" as="geometry" />
        </mxCell>
        <mxCell id="Orui0hAEhWIHDiH9NPAQ-247" value="VCC OUT    " style="shape=waypoint;sketch=0;fillStyle=solid;size=6;pointerEvents=1;points=[];fillColor=none;resizable=0;rotatable=0;perimeter=centerPerimeter;snapToPoint=1;align=right;" vertex="1" parent="Orui0hAEhWIHDiH9NPAQ-242">
          <mxGeometry x="130" y="20" width="20" height="20" as="geometry" />
        </mxCell>
        <mxCell id="Orui0hAEhWIHDiH9NPAQ-248" value="GND OUT    " style="shape=waypoint;sketch=0;fillStyle=solid;size=6;pointerEvents=1;points=[];fillColor=none;resizable=0;rotatable=0;perimeter=centerPerimeter;snapToPoint=1;align=right;" vertex="1" parent="Orui0hAEhWIHDiH9NPAQ-242">
          <mxGeometry x="130" y="40" width="20" height="20" as="geometry" />
        </mxCell>
        <mxCell id="Orui0hAEhWIHDiH9NPAQ-249" style="edgeStyle=orthogonalEdgeStyle;rounded=0;orthogonalLoop=1;jettySize=auto;html=1;endArrow=none;startFill=0;" edge="1" parent="1" source="Orui0hAEhWIHDiH9NPAQ-224" target="Orui0hAEhWIHDiH9NPAQ-216">
          <mxGeometry relative="1" as="geometry" />
        </mxCell>
        <mxCell id="Orui0hAEhWIHDiH9NPAQ-250" style="edgeStyle=orthogonalEdgeStyle;rounded=0;orthogonalLoop=1;jettySize=auto;html=1;endArrow=none;startFill=0;" edge="1" parent="1" source="Orui0hAEhWIHDiH9NPAQ-225" target="Orui0hAEhWIHDiH9NPAQ-217">
          <mxGeometry relative="1" as="geometry" />
        </mxCell>
        <mxCell id="Orui0hAEhWIHDiH9NPAQ-251" style="edgeStyle=orthogonalEdgeStyle;rounded=0;orthogonalLoop=1;jettySize=auto;html=1;endArrow=none;startFill=0;" edge="1" parent="1" source="Orui0hAEhWIHDiH9NPAQ-240" target="Orui0hAEhWIHDiH9NPAQ-206">
          <mxGeometry relative="1" as="geometry" />
        </mxCell>
        <mxCell id="Orui0hAEhWIHDiH9NPAQ-252" style="edgeStyle=orthogonalEdgeStyle;rounded=0;orthogonalLoop=1;jettySize=auto;html=1;endArrow=none;startFill=0;" edge="1" parent="1" source="Orui0hAEhWIHDiH9NPAQ-241" target="Orui0hAEhWIHDiH9NPAQ-207">
          <mxGeometry relative="1" as="geometry" />
        </mxCell>
        <mxCell id="Orui0hAEhWIHDiH9NPAQ-253" style="edgeStyle=orthogonalEdgeStyle;rounded=0;orthogonalLoop=1;jettySize=auto;html=1;endArrow=none;startFill=0;" edge="1" parent="1" source="Orui0hAEhWIHDiH9NPAQ-247" target="Orui0hAEhWIHDiH9NPAQ-195">
          <mxGeometry relative="1" as="geometry" />
        </mxCell>
        <mxCell id="Orui0hAEhWIHDiH9NPAQ-254" style="edgeStyle=orthogonalEdgeStyle;rounded=0;orthogonalLoop=1;jettySize=auto;html=1;endArrow=none;startFill=0;" edge="1" parent="1" source="Orui0hAEhWIHDiH9NPAQ-248" target="Orui0hAEhWIHDiH9NPAQ-196">
          <mxGeometry relative="1" as="geometry" />
        </mxCell>
        <mxCell id="Orui0hAEhWIHDiH9NPAQ-256" style="edgeStyle=orthogonalEdgeStyle;rounded=0;orthogonalLoop=1;jettySize=auto;html=1;endArrow=none;startFill=0;" edge="1" parent="1" source="Orui0hAEhWIHDiH9NPAQ-211" target="Orui0hAEhWIHDiH9NPAQ-82">
          <mxGeometry relative="1" as="geometry" />
        </mxCell>
        <mxCell id="Orui0hAEhWIHDiH9NPAQ-257" style="edgeStyle=orthogonalEdgeStyle;rounded=0;orthogonalLoop=1;jettySize=auto;html=1;endArrow=none;startFill=0;" edge="1" parent="1" source="Orui0hAEhWIHDiH9NPAQ-212" target="Orui0hAEhWIHDiH9NPAQ-83">
          <mxGeometry relative="1" as="geometry">
            <Array as="points">
              <mxPoint x="300" y="-650" />
              <mxPoint x="300" y="-630" />
            </Array>
          </mxGeometry>
        </mxCell>
        <mxCell id="Orui0hAEhWIHDiH9NPAQ-262" style="edgeStyle=orthogonalEdgeStyle;rounded=0;orthogonalLoop=1;jettySize=auto;html=1;entryX=0.357;entryY=0.447;entryDx=0;entryDy=0;entryPerimeter=0;endArrow=none;startFill=0;" edge="1" parent="1" source="Orui0hAEhWIHDiH9NPAQ-201" target="Orui0hAEhWIHDiH9NPAQ-95">
          <mxGeometry relative="1" as="geometry" />
        </mxCell>
        <mxCell id="Orui0hAEhWIHDiH9NPAQ-263" style="edgeStyle=orthogonalEdgeStyle;rounded=0;orthogonalLoop=1;jettySize=auto;html=1;endArrow=none;startFill=0;" edge="1" parent="1" source="Orui0hAEhWIHDiH9NPAQ-202" target="Orui0hAEhWIHDiH9NPAQ-96">
          <mxGeometry relative="1" as="geometry">
            <Array as="points">
              <mxPoint x="300" y="-470" />
              <mxPoint x="300" y="-450" />
            </Array>
          </mxGeometry>
        </mxCell>
        <mxCell id="Orui0hAEhWIHDiH9NPAQ-264" style="edgeStyle=orthogonalEdgeStyle;rounded=0;orthogonalLoop=1;jettySize=auto;html=1;entryX=0.378;entryY=0.615;entryDx=0;entryDy=0;entryPerimeter=0;endArrow=none;startFill=0;" edge="1" parent="1" source="Orui0hAEhWIHDiH9NPAQ-190" target="Orui0hAEhWIHDiH9NPAQ-117">
          <mxGeometry relative="1" as="geometry" />
        </mxCell>
        <mxCell id="Orui0hAEhWIHDiH9NPAQ-265" style="edgeStyle=orthogonalEdgeStyle;rounded=0;orthogonalLoop=1;jettySize=auto;html=1;entryX=0.184;entryY=0.48;entryDx=0;entryDy=0;entryPerimeter=0;endArrow=none;startFill=0;" edge="1" parent="1" source="Orui0hAEhWIHDiH9NPAQ-191" target="Orui0hAEhWIHDiH9NPAQ-118">
          <mxGeometry relative="1" as="geometry">
            <Array as="points">
              <mxPoint x="300" y="-290" />
              <mxPoint x="300" y="-270" />
            </Array>
          </mxGeometry>
        </mxCell>
        <mxCell id="Orui0hAEhWIHDiH9NPAQ-276" value="" style="group" vertex="1" connectable="0" parent="1">
          <mxGeometry x="-510" y="-570" width="70" height="60" as="geometry" />
        </mxCell>
        <mxCell id="Orui0hAEhWIHDiH9NPAQ-273" value="" style="rounded=0;whiteSpace=wrap;html=1;" vertex="1" parent="Orui0hAEhWIHDiH9NPAQ-276">
          <mxGeometry width="70" height="60" as="geometry" />
        </mxCell>
        <mxCell id="Orui0hAEhWIHDiH9NPAQ-272" value="Powerbank" style="text;html=1;align=center;verticalAlign=middle;whiteSpace=wrap;rounded=0;" vertex="1" parent="Orui0hAEhWIHDiH9NPAQ-276">
          <mxGeometry width="70" height="20" as="geometry" />
        </mxCell>
        <mxCell id="Orui0hAEhWIHDiH9NPAQ-274" value="VCC    " style="shape=waypoint;sketch=0;fillStyle=solid;size=6;pointerEvents=1;points=[];fillColor=none;resizable=0;rotatable=0;perimeter=centerPerimeter;snapToPoint=1;align=right;" vertex="1" parent="Orui0hAEhWIHDiH9NPAQ-276">
          <mxGeometry x="50" y="20" width="20" height="20" as="geometry" />
        </mxCell>
        <mxCell id="Orui0hAEhWIHDiH9NPAQ-275" value="GND    " style="shape=waypoint;sketch=0;fillStyle=solid;size=6;pointerEvents=1;points=[];fillColor=none;resizable=0;rotatable=0;perimeter=centerPerimeter;snapToPoint=1;align=right;" vertex="1" parent="Orui0hAEhWIHDiH9NPAQ-276">
          <mxGeometry x="50" y="40" width="20" height="20" as="geometry" />
        </mxCell>
        <mxCell id="Orui0hAEhWIHDiH9NPAQ-277" value="" style="group" vertex="1" connectable="0" parent="1">
          <mxGeometry x="840" y="-250" width="70" height="60" as="geometry" />
        </mxCell>
        <mxCell id="Orui0hAEhWIHDiH9NPAQ-278" value="" style="rounded=0;whiteSpace=wrap;html=1;" vertex="1" parent="Orui0hAEhWIHDiH9NPAQ-277">
          <mxGeometry width="70" height="60" as="geometry" />
        </mxCell>
        <mxCell id="Orui0hAEhWIHDiH9NPAQ-279" value="Powerbank" style="text;html=1;align=center;verticalAlign=middle;whiteSpace=wrap;rounded=0;" vertex="1" parent="Orui0hAEhWIHDiH9NPAQ-277">
          <mxGeometry width="70" height="20" as="geometry" />
        </mxCell>
        <mxCell id="Orui0hAEhWIHDiH9NPAQ-280" value="VCC    " style="shape=waypoint;sketch=0;fillStyle=solid;size=6;pointerEvents=1;points=[];fillColor=none;resizable=0;rotatable=0;perimeter=centerPerimeter;snapToPoint=1;align=right;" vertex="1" parent="Orui0hAEhWIHDiH9NPAQ-277">
          <mxGeometry x="50" y="20" width="20" height="20" as="geometry" />
        </mxCell>
        <mxCell id="Orui0hAEhWIHDiH9NPAQ-281" value="GND    " style="shape=waypoint;sketch=0;fillStyle=solid;size=6;pointerEvents=1;points=[];fillColor=none;resizable=0;rotatable=0;perimeter=centerPerimeter;snapToPoint=1;align=right;" vertex="1" parent="Orui0hAEhWIHDiH9NPAQ-277">
          <mxGeometry x="50" y="40" width="20" height="20" as="geometry" />
        </mxCell>
        <mxCell id="Orui0hAEhWIHDiH9NPAQ-319" value="" style="group" vertex="1" connectable="0" parent="1">
          <mxGeometry x="980" y="-550" width="140" height="480" as="geometry" />
        </mxCell>
        <mxCell id="Orui0hAEhWIHDiH9NPAQ-320" value="" style="rounded=0;whiteSpace=wrap;html=1;" vertex="1" parent="Orui0hAEhWIHDiH9NPAQ-319">
          <mxGeometry width="140" height="480" as="geometry" />
        </mxCell>
        <mxCell id="Orui0hAEhWIHDiH9NPAQ-321" value="Rasberry Pi 5" style="text;html=1;align=center;verticalAlign=middle;whiteSpace=wrap;rounded=0;" vertex="1" parent="Orui0hAEhWIHDiH9NPAQ-319">
          <mxGeometry x="17" width="123" height="20" as="geometry" />
        </mxCell>
        <mxCell id="Orui0hAEhWIHDiH9NPAQ-322" value="    VCC IN" style="shape=waypoint;sketch=0;fillStyle=solid;size=6;pointerEvents=1;points=[];fillColor=none;resizable=0;rotatable=0;perimeter=centerPerimeter;snapToPoint=1;align=left;" vertex="1" parent="Orui0hAEhWIHDiH9NPAQ-319">
          <mxGeometry y="20" width="20" height="20" as="geometry" />
        </mxCell>
        <mxCell id="Orui0hAEhWIHDiH9NPAQ-323" value="    GND IN" style="shape=waypoint;sketch=0;fillStyle=solid;size=6;pointerEvents=1;points=[];fillColor=none;resizable=0;rotatable=0;perimeter=centerPerimeter;snapToPoint=1;align=left;" vertex="1" parent="Orui0hAEhWIHDiH9NPAQ-319">
          <mxGeometry y="40" width="20" height="20" as="geometry" />
        </mxCell>
        <mxCell id="Orui0hAEhWIHDiH9NPAQ-324" value="3,3V (01)    " style="shape=waypoint;sketch=0;fillStyle=solid;size=6;pointerEvents=1;points=[];fillColor=none;resizable=0;rotatable=0;perimeter=centerPerimeter;snapToPoint=1;align=right;" vertex="1" parent="Orui0hAEhWIHDiH9NPAQ-319">
          <mxGeometry x="120" y="20" width="20" height="20" as="geometry" />
        </mxCell>
        <mxCell id="Orui0hAEhWIHDiH9NPAQ-325" value="GND (06)    " style="shape=waypoint;sketch=0;fillStyle=solid;size=6;pointerEvents=1;points=[];fillColor=none;resizable=0;rotatable=0;perimeter=centerPerimeter;snapToPoint=1;align=right;" vertex="1" parent="Orui0hAEhWIHDiH9NPAQ-319">
          <mxGeometry x="120" y="40" width="20" height="20" as="geometry" />
        </mxCell>
        <mxCell id="Orui0hAEhWIHDiH9NPAQ-326" value="GPIO 4 (07)    " style="shape=waypoint;sketch=0;fillStyle=solid;size=6;pointerEvents=1;points=[];fillColor=none;resizable=0;rotatable=0;perimeter=centerPerimeter;snapToPoint=1;align=right;" vertex="1" parent="Orui0hAEhWIHDiH9NPAQ-319">
          <mxGeometry x="120" y="60" width="20" height="20" as="geometry" />
        </mxCell>
        <mxCell id="Orui0hAEhWIHDiH9NPAQ-327" value="GPIO 14 (08)    " style="shape=waypoint;sketch=0;fillStyle=solid;size=6;pointerEvents=1;points=[];fillColor=none;resizable=0;rotatable=0;perimeter=centerPerimeter;snapToPoint=1;align=right;" vertex="1" parent="Orui0hAEhWIHDiH9NPAQ-319">
          <mxGeometry x="120" y="80" width="20" height="20" as="geometry" />
        </mxCell>
        <mxCell id="Orui0hAEhWIHDiH9NPAQ-328" value="Ground (09)    " style="shape=waypoint;sketch=0;fillStyle=solid;size=6;pointerEvents=1;points=[];fillColor=none;resizable=0;rotatable=0;perimeter=centerPerimeter;snapToPoint=1;align=right;" vertex="1" parent="Orui0hAEhWIHDiH9NPAQ-319">
          <mxGeometry x="120" y="100" width="20" height="20" as="geometry" />
        </mxCell>
        <mxCell id="Orui0hAEhWIHDiH9NPAQ-329" value="GPIO 15 (10)    " style="shape=waypoint;sketch=0;fillStyle=solid;size=6;pointerEvents=1;points=[];fillColor=none;resizable=0;rotatable=0;perimeter=centerPerimeter;snapToPoint=1;align=right;" vertex="1" parent="Orui0hAEhWIHDiH9NPAQ-319">
          <mxGeometry x="120" y="120" width="20" height="20" as="geometry" />
        </mxCell>
        <mxCell id="Orui0hAEhWIHDiH9NPAQ-330" value="GPIO 27 (13)    " style="shape=waypoint;sketch=0;fillStyle=solid;size=6;pointerEvents=1;points=[];fillColor=none;resizable=0;rotatable=0;perimeter=centerPerimeter;snapToPoint=1;align=right;" vertex="1" parent="Orui0hAEhWIHDiH9NPAQ-319">
          <mxGeometry x="120" y="140" width="20" height="20" as="geometry" />
        </mxCell>
        <mxCell id="Orui0hAEhWIHDiH9NPAQ-331" value="GPIO 22 (15)    " style="shape=waypoint;sketch=0;fillStyle=solid;size=6;pointerEvents=1;points=[];fillColor=none;resizable=0;rotatable=0;perimeter=centerPerimeter;snapToPoint=1;align=right;" vertex="1" parent="Orui0hAEhWIHDiH9NPAQ-319">
          <mxGeometry x="120" y="160" width="20" height="20" as="geometry" />
        </mxCell>
        <mxCell id="Orui0hAEhWIHDiH9NPAQ-332" value="3,3V (17)    " style="shape=waypoint;sketch=0;fillStyle=solid;size=6;pointerEvents=1;points=[];fillColor=none;resizable=0;rotatable=0;perimeter=centerPerimeter;snapToPoint=1;align=right;" vertex="1" parent="Orui0hAEhWIHDiH9NPAQ-319">
          <mxGeometry x="120" y="180" width="20" height="20" as="geometry" />
        </mxCell>
        <mxCell id="Orui0hAEhWIHDiH9NPAQ-333" value="GND (20)    " style="shape=waypoint;sketch=0;fillStyle=solid;size=6;pointerEvents=1;points=[];fillColor=none;resizable=0;rotatable=0;perimeter=centerPerimeter;snapToPoint=1;align=right;" vertex="1" parent="Orui0hAEhWIHDiH9NPAQ-319">
          <mxGeometry x="120" y="200" width="20" height="20" as="geometry" />
        </mxCell>
        <mxCell id="Orui0hAEhWIHDiH9NPAQ-334" value="GPIO 9 (21)    " style="shape=waypoint;sketch=0;fillStyle=solid;size=6;pointerEvents=1;points=[];fillColor=none;resizable=0;rotatable=0;perimeter=centerPerimeter;snapToPoint=1;align=right;" vertex="1" parent="Orui0hAEhWIHDiH9NPAQ-319">
          <mxGeometry x="120" y="220" width="20" height="20" as="geometry" />
        </mxCell>
        <mxCell id="Orui0hAEhWIHDiH9NPAQ-335" value="GPIO 25 (22)    " style="shape=waypoint;sketch=0;fillStyle=solid;size=6;pointerEvents=1;points=[];fillColor=none;resizable=0;rotatable=0;perimeter=centerPerimeter;snapToPoint=1;align=right;" vertex="1" parent="Orui0hAEhWIHDiH9NPAQ-319">
          <mxGeometry x="120" y="240" width="20" height="20" as="geometry" />
        </mxCell>
        <mxCell id="Orui0hAEhWIHDiH9NPAQ-336" value="GLIP 11 (23)    " style="shape=waypoint;sketch=0;fillStyle=solid;size=6;pointerEvents=1;points=[];fillColor=none;resizable=0;rotatable=0;perimeter=centerPerimeter;snapToPoint=1;align=right;" vertex="1" parent="Orui0hAEhWIHDiH9NPAQ-319">
          <mxGeometry x="120" y="260" width="20" height="20" as="geometry" />
        </mxCell>
        <mxCell id="Orui0hAEhWIHDiH9NPAQ-337" value="GPIO 8 (24)    " style="shape=waypoint;sketch=0;fillStyle=solid;size=6;pointerEvents=1;points=[];fillColor=none;resizable=0;rotatable=0;perimeter=centerPerimeter;snapToPoint=1;align=right;" vertex="1" parent="Orui0hAEhWIHDiH9NPAQ-319">
          <mxGeometry x="120" y="280" width="20" height="20" as="geometry" />
        </mxCell>
        <mxCell id="Orui0hAEhWIHDiH9NPAQ-338" value="GND (25)    " style="shape=waypoint;sketch=0;fillStyle=solid;size=6;pointerEvents=1;points=[];fillColor=none;resizable=0;rotatable=0;perimeter=centerPerimeter;snapToPoint=1;align=right;" vertex="1" parent="Orui0hAEhWIHDiH9NPAQ-319">
          <mxGeometry x="120" y="300" width="20" height="20" as="geometry" />
        </mxCell>
        <mxCell id="Orui0hAEhWIHDiH9NPAQ-339" value="GPIO 7 (26)    " style="shape=waypoint;sketch=0;fillStyle=solid;size=6;pointerEvents=1;points=[];fillColor=none;resizable=0;rotatable=0;perimeter=centerPerimeter;snapToPoint=1;align=right;" vertex="1" parent="Orui0hAEhWIHDiH9NPAQ-319">
          <mxGeometry x="120" y="320" width="20" height="20" as="geometry" />
        </mxCell>
        <mxCell id="Orui0hAEhWIHDiH9NPAQ-340" value="GOIO 13 (33)    " style="shape=waypoint;sketch=0;fillStyle=solid;size=6;pointerEvents=1;points=[];fillColor=none;resizable=0;rotatable=0;perimeter=centerPerimeter;snapToPoint=1;align=right;" vertex="1" parent="Orui0hAEhWIHDiH9NPAQ-319">
          <mxGeometry x="120" y="340" width="20" height="20" as="geometry" />
        </mxCell>
        <mxCell id="Orui0hAEhWIHDiH9NPAQ-341" value="GND (34)    " style="shape=waypoint;sketch=0;fillStyle=solid;size=6;pointerEvents=1;points=[];fillColor=none;resizable=0;rotatable=0;perimeter=centerPerimeter;snapToPoint=1;align=right;" vertex="1" parent="Orui0hAEhWIHDiH9NPAQ-319">
          <mxGeometry x="120" y="360" width="20" height="20" as="geometry" />
        </mxCell>
        <mxCell id="Orui0hAEhWIHDiH9NPAQ-342" value="GPIO 19 (35)    " style="shape=waypoint;sketch=0;fillStyle=solid;size=6;pointerEvents=1;points=[];fillColor=none;resizable=0;rotatable=0;perimeter=centerPerimeter;snapToPoint=1;align=right;" vertex="1" parent="Orui0hAEhWIHDiH9NPAQ-319">
          <mxGeometry x="120" y="380" width="20" height="20" as="geometry" />
        </mxCell>
        <mxCell id="Orui0hAEhWIHDiH9NPAQ-343" value="GPIO 26 (37)    " style="shape=waypoint;sketch=0;fillStyle=solid;size=6;pointerEvents=1;points=[];fillColor=none;resizable=0;rotatable=0;perimeter=centerPerimeter;snapToPoint=1;align=right;" vertex="1" parent="Orui0hAEhWIHDiH9NPAQ-319">
          <mxGeometry x="120" y="400" width="20" height="20" as="geometry" />
        </mxCell>
        <mxCell id="Orui0hAEhWIHDiH9NPAQ-344" value="GPIO 20 (38)    " style="shape=waypoint;sketch=0;fillStyle=solid;size=6;pointerEvents=1;points=[];fillColor=none;resizable=0;rotatable=0;perimeter=centerPerimeter;snapToPoint=1;align=right;" vertex="1" parent="Orui0hAEhWIHDiH9NPAQ-319">
          <mxGeometry x="120" y="420" width="20" height="20" as="geometry" />
        </mxCell>
        <mxCell id="Orui0hAEhWIHDiH9NPAQ-345" value="GND (39)    " style="shape=waypoint;sketch=0;fillStyle=solid;size=6;pointerEvents=1;points=[];fillColor=none;resizable=0;rotatable=0;perimeter=centerPerimeter;snapToPoint=1;align=right;" vertex="1" parent="Orui0hAEhWIHDiH9NPAQ-319">
          <mxGeometry x="120" y="440" width="20" height="20" as="geometry" />
        </mxCell>
        <mxCell id="Orui0hAEhWIHDiH9NPAQ-346" value="GPIO 21 (40)    " style="shape=waypoint;sketch=0;fillStyle=solid;size=6;pointerEvents=1;points=[];fillColor=none;resizable=0;rotatable=0;perimeter=centerPerimeter;snapToPoint=1;align=right;" vertex="1" parent="Orui0hAEhWIHDiH9NPAQ-319">
          <mxGeometry x="120" y="460" width="20" height="20" as="geometry" />
        </mxCell>
        <mxCell id="Orui0hAEhWIHDiH9NPAQ-267" value="" style="rounded=0;whiteSpace=wrap;html=1;" vertex="1" parent="1">
          <mxGeometry x="-420" y="-570" width="140" height="600" as="geometry" />
        </mxCell>
        <mxCell id="Orui0hAEhWIHDiH9NPAQ-268" value="Rasberry Pi 5" style="text;html=1;align=center;verticalAlign=middle;whiteSpace=wrap;rounded=0;" vertex="1" parent="1">
          <mxGeometry x="-403" y="-570" width="123" height="20" as="geometry" />
        </mxCell>
        <mxCell id="Orui0hAEhWIHDiH9NPAQ-269" value="    VCC IN" style="shape=waypoint;sketch=0;fillStyle=solid;size=6;pointerEvents=1;points=[];fillColor=none;resizable=0;rotatable=0;perimeter=centerPerimeter;snapToPoint=1;align=left;" vertex="1" parent="1">
          <mxGeometry x="-420" y="-550" width="20" height="20" as="geometry" />
        </mxCell>
        <mxCell id="Orui0hAEhWIHDiH9NPAQ-270" value="    GND IN" style="shape=waypoint;sketch=0;fillStyle=solid;size=6;pointerEvents=1;points=[];fillColor=none;resizable=0;rotatable=0;perimeter=centerPerimeter;snapToPoint=1;align=left;" vertex="1" parent="1">
          <mxGeometry x="-420" y="-530" width="20" height="20" as="geometry" />
        </mxCell>
        <mxCell id="Orui0hAEhWIHDiH9NPAQ-286" value="3,3V (01)    " style="shape=waypoint;sketch=0;fillStyle=solid;size=6;pointerEvents=1;points=[];fillColor=none;resizable=0;rotatable=0;perimeter=centerPerimeter;snapToPoint=1;align=right;" vertex="1" parent="1">
          <mxGeometry x="-300" y="-550" width="20" height="20" as="geometry" />
        </mxCell>
        <mxCell id="Orui0hAEhWIHDiH9NPAQ-287" value="GND (06)    " style="shape=waypoint;sketch=0;fillStyle=solid;size=6;pointerEvents=1;points=[];fillColor=none;resizable=0;rotatable=0;perimeter=centerPerimeter;snapToPoint=1;align=right;" vertex="1" parent="1">
          <mxGeometry x="-300" y="-530" width="20" height="20" as="geometry" />
        </mxCell>
        <mxCell id="Orui0hAEhWIHDiH9NPAQ-288" value="GPIO 4 (07)    " style="shape=waypoint;sketch=0;fillStyle=solid;size=6;pointerEvents=1;points=[];fillColor=none;resizable=0;rotatable=0;perimeter=centerPerimeter;snapToPoint=1;align=right;" vertex="1" parent="1">
          <mxGeometry x="-300" y="-510" width="20" height="20" as="geometry" />
        </mxCell>
        <mxCell id="Orui0hAEhWIHDiH9NPAQ-289" value="GPIO 14 (08)    " style="shape=waypoint;sketch=0;fillStyle=solid;size=6;pointerEvents=1;points=[];fillColor=none;resizable=0;rotatable=0;perimeter=centerPerimeter;snapToPoint=1;align=right;" vertex="1" parent="1">
          <mxGeometry x="-300" y="-490" width="20" height="20" as="geometry" />
        </mxCell>
        <mxCell id="Orui0hAEhWIHDiH9NPAQ-290" value="Ground (09)    " style="shape=waypoint;sketch=0;fillStyle=solid;size=6;pointerEvents=1;points=[];fillColor=none;resizable=0;rotatable=0;perimeter=centerPerimeter;snapToPoint=1;align=right;" vertex="1" parent="1">
          <mxGeometry x="-300" y="-470" width="20" height="20" as="geometry" />
        </mxCell>
        <mxCell id="Orui0hAEhWIHDiH9NPAQ-291" value="GPIO 15 (10)    " style="shape=waypoint;sketch=0;fillStyle=solid;size=6;pointerEvents=1;points=[];fillColor=none;resizable=0;rotatable=0;perimeter=centerPerimeter;snapToPoint=1;align=right;" vertex="1" parent="1">
          <mxGeometry x="-300" y="-450" width="20" height="20" as="geometry" />
        </mxCell>
        <mxCell id="Orui0hAEhWIHDiH9NPAQ-292" value="GPIO 27 (13)    " style="shape=waypoint;sketch=0;fillStyle=solid;size=6;pointerEvents=1;points=[];fillColor=none;resizable=0;rotatable=0;perimeter=centerPerimeter;snapToPoint=1;align=right;" vertex="1" parent="1">
          <mxGeometry x="-300" y="-430" width="20" height="20" as="geometry" />
        </mxCell>
        <mxCell id="Orui0hAEhWIHDiH9NPAQ-293" value="GPIO 22 (15)    " style="shape=waypoint;sketch=0;fillStyle=solid;size=6;pointerEvents=1;points=[];fillColor=none;resizable=0;rotatable=0;perimeter=centerPerimeter;snapToPoint=1;align=right;" vertex="1" parent="1">
          <mxGeometry x="-300" y="-410" width="20" height="20" as="geometry" />
        </mxCell>
        <mxCell id="Orui0hAEhWIHDiH9NPAQ-294" value="3,3V (17)    " style="shape=waypoint;sketch=0;fillStyle=solid;size=6;pointerEvents=1;points=[];fillColor=none;resizable=0;rotatable=0;perimeter=centerPerimeter;snapToPoint=1;align=right;" vertex="1" parent="1">
          <mxGeometry x="-300" y="-390" width="20" height="20" as="geometry" />
        </mxCell>
        <mxCell id="Orui0hAEhWIHDiH9NPAQ-295" value="GND (20)    " style="shape=waypoint;sketch=0;fillStyle=solid;size=6;pointerEvents=1;points=[];fillColor=none;resizable=0;rotatable=0;perimeter=centerPerimeter;snapToPoint=1;align=right;" vertex="1" parent="1">
          <mxGeometry x="-300" y="-370" width="20" height="20" as="geometry" />
        </mxCell>
        <mxCell id="Orui0hAEhWIHDiH9NPAQ-296" value="GPIO 9 (21)    " style="shape=waypoint;sketch=0;fillStyle=solid;size=6;pointerEvents=1;points=[];fillColor=none;resizable=0;rotatable=0;perimeter=centerPerimeter;snapToPoint=1;align=right;" vertex="1" parent="1">
          <mxGeometry x="-300" y="-350" width="20" height="20" as="geometry" />
        </mxCell>
        <mxCell id="Orui0hAEhWIHDiH9NPAQ-297" value="GPIO 25 (22)    " style="shape=waypoint;sketch=0;fillStyle=solid;size=6;pointerEvents=1;points=[];fillColor=none;resizable=0;rotatable=0;perimeter=centerPerimeter;snapToPoint=1;align=right;" vertex="1" parent="1">
          <mxGeometry x="-300" y="-330" width="20" height="20" as="geometry" />
        </mxCell>
        <mxCell id="Orui0hAEhWIHDiH9NPAQ-298" value="GLIP 11 (23)    " style="shape=waypoint;sketch=0;fillStyle=solid;size=6;pointerEvents=1;points=[];fillColor=none;resizable=0;rotatable=0;perimeter=centerPerimeter;snapToPoint=1;align=right;" vertex="1" parent="1">
          <mxGeometry x="-300" y="-310" width="20" height="20" as="geometry" />
        </mxCell>
        <mxCell id="Orui0hAEhWIHDiH9NPAQ-299" value="GPIO 8 (24)    " style="shape=waypoint;sketch=0;fillStyle=solid;size=6;pointerEvents=1;points=[];fillColor=none;resizable=0;rotatable=0;perimeter=centerPerimeter;snapToPoint=1;align=right;" vertex="1" parent="1">
          <mxGeometry x="-300" y="-290" width="20" height="20" as="geometry" />
        </mxCell>
        <mxCell id="Orui0hAEhWIHDiH9NPAQ-300" value="GND (25)    " style="shape=waypoint;sketch=0;fillStyle=solid;size=6;pointerEvents=1;points=[];fillColor=none;resizable=0;rotatable=0;perimeter=centerPerimeter;snapToPoint=1;align=right;" vertex="1" parent="1">
          <mxGeometry x="-300" y="-270" width="20" height="20" as="geometry" />
        </mxCell>
        <mxCell id="Orui0hAEhWIHDiH9NPAQ-301" value="GPIO 7 (26)    " style="shape=waypoint;sketch=0;fillStyle=solid;size=6;pointerEvents=1;points=[];fillColor=none;resizable=0;rotatable=0;perimeter=centerPerimeter;snapToPoint=1;align=right;" vertex="1" parent="1">
          <mxGeometry x="-300" y="-250" width="20" height="20" as="geometry" />
        </mxCell>
        <mxCell id="Orui0hAEhWIHDiH9NPAQ-302" value="GOIO 13 (33)    " style="shape=waypoint;sketch=0;fillStyle=solid;size=6;pointerEvents=1;points=[];fillColor=none;resizable=0;rotatable=0;perimeter=centerPerimeter;snapToPoint=1;align=right;" vertex="1" parent="1">
          <mxGeometry x="-300" y="-230" width="20" height="20" as="geometry" />
        </mxCell>
        <mxCell id="Orui0hAEhWIHDiH9NPAQ-303" value="GND (34)    " style="shape=waypoint;sketch=0;fillStyle=solid;size=6;pointerEvents=1;points=[];fillColor=none;resizable=0;rotatable=0;perimeter=centerPerimeter;snapToPoint=1;align=right;" vertex="1" parent="1">
          <mxGeometry x="-300" y="-210" width="20" height="20" as="geometry" />
        </mxCell>
        <mxCell id="Orui0hAEhWIHDiH9NPAQ-304" value="GPIO 19 (35)    " style="shape=waypoint;sketch=0;fillStyle=solid;size=6;pointerEvents=1;points=[];fillColor=none;resizable=0;rotatable=0;perimeter=centerPerimeter;snapToPoint=1;align=right;" vertex="1" parent="1">
          <mxGeometry x="-300" y="-190" width="20" height="20" as="geometry" />
        </mxCell>
        <mxCell id="Orui0hAEhWIHDiH9NPAQ-305" value="GPIO 26 (37)    " style="shape=waypoint;sketch=0;fillStyle=solid;size=6;pointerEvents=1;points=[];fillColor=none;resizable=0;rotatable=0;perimeter=centerPerimeter;snapToPoint=1;align=right;" vertex="1" parent="1">
          <mxGeometry x="-300" y="-170" width="20" height="20" as="geometry" />
        </mxCell>
        <mxCell id="Orui0hAEhWIHDiH9NPAQ-306" value="GPIO 20 (38)    " style="shape=waypoint;sketch=0;fillStyle=solid;size=6;pointerEvents=1;points=[];fillColor=none;resizable=0;rotatable=0;perimeter=centerPerimeter;snapToPoint=1;align=right;" vertex="1" parent="1">
          <mxGeometry x="-300" y="-150" width="20" height="20" as="geometry" />
        </mxCell>
        <mxCell id="Orui0hAEhWIHDiH9NPAQ-307" value="GND (39)    " style="shape=waypoint;sketch=0;fillStyle=solid;size=6;pointerEvents=1;points=[];fillColor=none;resizable=0;rotatable=0;perimeter=centerPerimeter;snapToPoint=1;align=right;" vertex="1" parent="1">
          <mxGeometry x="-300" y="-130" width="20" height="20" as="geometry" />
        </mxCell>
        <mxCell id="Orui0hAEhWIHDiH9NPAQ-308" value="GPIO 21 (40)    " style="shape=waypoint;sketch=0;fillStyle=solid;size=6;pointerEvents=1;points=[];fillColor=none;resizable=0;rotatable=0;perimeter=centerPerimeter;snapToPoint=1;align=right;" vertex="1" parent="1">
          <mxGeometry x="-300" y="-110" width="20" height="20" as="geometry" />
        </mxCell>
        <mxCell id="Orui0hAEhWIHDiH9NPAQ-347" value="" style="rounded=0;whiteSpace=wrap;html=1;" vertex="1" parent="1">
          <mxGeometry x="-420" y="-90" width="140" height="60" as="geometry" />
        </mxCell>
        <mxCell id="Orui0hAEhWIHDiH9NPAQ-350" value="ttyUSB0" style="text;html=1;align=center;verticalAlign=middle;whiteSpace=wrap;rounded=0;" vertex="1" parent="1">
          <mxGeometry x="-420" y="-90" width="140" height="20" as="geometry" />
        </mxCell>
        <mxCell id="Orui0hAEhWIHDiH9NPAQ-351" value="" style="rounded=0;whiteSpace=wrap;html=1;" vertex="1" parent="1">
          <mxGeometry x="950" y="-690" width="100" height="130" as="geometry" />
        </mxCell>
        <mxCell id="Orui0hAEhWIHDiH9NPAQ-352" value="RPLIDAR A1M8" style="text;html=1;align=center;verticalAlign=middle;whiteSpace=wrap;rounded=0;" vertex="1" parent="1">
          <mxGeometry x="950" y="-690" width="100" height="20" as="geometry" />
        </mxCell>
        <mxCell id="Orui0hAEhWIHDiH9NPAQ-355" value="USB Dongle" style="text;html=1;align=center;verticalAlign=middle;whiteSpace=wrap;rounded=0;" vertex="1" parent="1">
          <mxGeometry x="970" y="-810" width="80" height="20" as="geometry" />
        </mxCell>
        <mxCell id="Orui0hAEhWIHDiH9NPAQ-360" value="" style="rounded=0;whiteSpace=wrap;html=1;" vertex="1" parent="1">
          <mxGeometry x="950" y="-670" width="100" height="80" as="geometry" />
        </mxCell>
        <mxCell id="Orui0hAEhWIHDiH9NPAQ-361" value="Motor" style="text;html=1;align=center;verticalAlign=middle;whiteSpace=wrap;rounded=0;" vertex="1" parent="1">
          <mxGeometry x="950" y="-670" width="100" height="20" as="geometry" />
        </mxCell>
        <mxCell id="Orui0hAEhWIHDiH9NPAQ-353" value="VCC (5v)    " style="shape=waypoint;sketch=0;fillStyle=solid;size=6;pointerEvents=1;points=[];fillColor=none;resizable=0;rotatable=0;perimeter=centerPerimeter;snapToPoint=1;align=right;" vertex="1" parent="1">
          <mxGeometry x="1030" y="-650" width="20" height="20" as="geometry" />
        </mxCell>
        <mxCell id="Orui0hAEhWIHDiH9NPAQ-362" value="VCC (5v)    " style="shape=waypoint;sketch=0;fillStyle=solid;size=6;pointerEvents=1;points=[];fillColor=none;resizable=0;rotatable=0;perimeter=centerPerimeter;snapToPoint=1;align=right;" vertex="1" parent="1">
          <mxGeometry x="1030" y="-630" width="20" height="20" as="geometry" />
        </mxCell>
        <mxCell id="Orui0hAEhWIHDiH9NPAQ-363" value="VCC (5v)    " style="shape=waypoint;sketch=0;fillStyle=solid;size=6;pointerEvents=1;points=[];fillColor=none;resizable=0;rotatable=0;perimeter=centerPerimeter;snapToPoint=1;align=right;" vertex="1" parent="1">
          <mxGeometry x="1030" y="-610" width="20" height="20" as="geometry" />
        </mxCell>
      </root>
    </mxGraphModel>
  </diagram>
</mxfile>
